<?xml version="1.0" encoding="UTF-8"?>
<svg width="40" height="40" viewBox="0 0 500 500" xmlns="http://www.w3.org/2000/svg">
  <g fill="#FFFFFF">
    <path d="M250 50c-70 0-127 57-127 127 0 45 24 85 60 107v166h134V284c36-22 60-62 60-107 0-70-57-127-127-127zm67 214l-14 8v148h-106V272l-14-8c-32-19-52-54-52-91 0-61 50-111 111-111s111 50 111 111c0 37-20 72-52 91z"/>
    <path d="M250 120c-31 0-57 26-57 57s26 57 57 57 57-26 57-57-26-57-57-57zm0 98c-23 0-41-18-41-41s18-41 41-41 41 18 41 41-18 41-41 41z"/>
    <rect x="217" y="290" width="66" height="20" rx="10"/>
  </g>
  <path d="M180 100h140v60H180z" fill="#FFFFFF"/>
  <path d="M200 120h100v20H200z" fill="#FFFFFF"/>
</svg> 